<?xml version="1.0" encoding="UTF-8" standalone="no"?>
<!-- Created with Inkscape (http://www.inkscape.org/) -->

<svg
   xmlns:dc="http://purl.org/dc/elements/1.1/"
   xmlns:cc="http://creativecommons.org/ns#"
   xmlns:rdf="http://www.w3.org/1999/02/22-rdf-syntax-ns#"
   xmlns:svg="http://www.w3.org/2000/svg"
   xmlns="http://www.w3.org/2000/svg"
   xmlns:sodipodi="http://sodipodi.sourceforge.net/DTD/sodipodi-0.dtd"
   xmlns:inkscape="http://www.inkscape.org/namespaces/inkscape"
   width="300mm"
   height="90mm"
   viewBox="0 0 1062.9922 318.89763"
   id="svg5298"
   version="1.1"
   inkscape:version="0.91 r13725"
   sodipodi:docname="mobirob_logo.svg">
  <defs
     id="defs5300">
    <marker
       orient="auto"
       id="DistanceX"
       style="overflow:visible"
       refX="0"
       refY="0">
      <path
         id="path5853"
         d="M 3,-3 -3,3 M 0,-5 0,5"
         style="stroke:#000000;stroke-width:0.5"
         inkscape:connector-curvature="0" />
    </marker>
    <pattern
       id="Hatch"
       x="0"
       y="0"
       patternUnits="userSpaceOnUse"
       width="8"
       height="8">
      <path
         id="path5856"
         d="M8 4 l-4,4"
         stroke-width="0.25"
         stroke="#000000"
         linecap="square" />
      <path
         id="path5858"
         d="M6 2 l-4,4"
         stroke-width="0.25"
         stroke="#000000"
         linecap="square" />
      <path
         id="path5860"
         d="M4 0 l-4,4"
         stroke-width="0.25"
         stroke="#000000"
         linecap="square" />
    </pattern>
    <symbol
       id="*Model_Space" />
    <symbol
       id="*Paper_Space" />
    <symbol
       id="*Paper_Space0" />
  </defs>
  <sodipodi:namedview
     id="base"
     pagecolor="#ffffff"
     bordercolor="#666666"
     borderopacity="1.0"
     inkscape:pageopacity="0.0"
     inkscape:pageshadow="2"
     inkscape:zoom="0.98994949"
     inkscape:cx="178.25463"
     inkscape:cy="385.74359"
     inkscape:document-units="px"
     inkscape:current-layer="layer1"
     showgrid="false"
     inkscape:window-width="2497"
     inkscape:window-height="1418"
     inkscape:window-x="55"
     inkscape:window-y="-8"
     inkscape:window-maximized="1" />
  <metadata
     id="metadata5303">
    <rdf:RDF>
      <cc:Work
         rdf:about="">
        <dc:format>image/svg+xml</dc:format>
        <dc:type
           rdf:resource="http://purl.org/dc/dcmitype/StillImage" />
        <dc:title></dc:title>
      </cc:Work>
    </rdf:RDF>
  </metadata>
  <g
     inkscape:label="Layer 1"
     inkscape:groupmode="layer"
     id="layer1"
     transform="translate(0,-733.46455)">
    <g
       inkscape:label="0"
       id="g5865"
       transform="translate(237.14288,-685.71426)" />
    <path
       id="path5881"
       style="fill:#92aac7;fill-opacity:1;stroke:#000000;stroke-width:0;stroke-linecap:round;stroke-miterlimit:4;stroke-dasharray:none"
       d="m 108.75634,933.19803 c 21.49077,13.9635 49.88554,10.6021 67.52184,-7.9935 17.63631,-18.59551 19.49066,-47.12836 4.40957,-67.85019 l 16.96087,-46.59962 c 45.79196,24.82472 60.38422,83.60978 31.51735,126.96721 -28.86687,43.35737 -88.73125,52.57007 -129.29844,19.8979 z"
       inkscape:connector-curvature="0"
       sodipodi:nodetypes="csccscc" />
    <path
       id="path5883"
       style="fill:#ed5752;fill-opacity:1;stroke:#000000;stroke-width:0;stroke-linecap:round;stroke-miterlimit:4;stroke-dasharray:none"
       d="m 99.15044,852.05533 c 17.6363,-18.59553 46.03107,-21.95702 67.52184,-7.99349 l 8.88881,-24.42181 C 134.9939,786.96779 75.12949,796.18047 46.26261,839.53791 17.39573,882.89535 31.98801,941.68043 77.78,966.50513 L 94.74087,919.90554 C 79.65978,899.18371 81.51413,870.65086 99.15044,852.05533 Z"
       inkscape:connector-curvature="0"
       sodipodi:nodetypes="sccsccs" />
    <path
       inkscape:connector-curvature="0"
       id="path4174"
       style="font-style:normal;font-variant:normal;font-weight:bold;font-stretch:normal;font-size:180px;line-height:125%;font-family:Comfortaa;-inkscape-font-specification:'Comfortaa Bold';letter-spacing:5px;word-spacing:0px;fill:#ed5752;fill-opacity:1;stroke:none;stroke-width:1px;stroke-linecap:butt;stroke-linejoin:miter;stroke-opacity:1"
       d="m 415.67673,931.7139 q 0,3.8672 -2.72461,6.5918 -2.63672,2.6367 -6.41602,2.6367 -3.86719,0 -6.5039,-2.6367 -2.63672,-2.7246 -2.63672,-6.5918 l 0,-50.00975 q 0,-4.21875 -1.66992,-7.99805 -1.58204,-3.7793 -4.39454,-6.5918 -2.8125,-2.90039 -6.67968,-4.57031 -3.7793,-1.66992 -8.17383,-1.66992 -4.30664,0 -8.08594,1.66992 -3.7793,1.66992 -6.67969,4.48242 -2.8125,2.8125 -4.48242,6.5918 -1.58203,3.7793 -1.58203,8.08594 l 0,50.00975 q 0,3.8672 -2.72461,6.5918 -2.63672,2.6367 -6.41601,2.6367 -3.86719,0 -6.5918,-2.6367 -2.63672,-2.7246 -2.63672,-6.5918 l 0,-50.00975 q 0,-4.30664 -1.66992,-8.08594 -1.66992,-3.7793 -4.48242,-6.5918 -2.8125,-2.8125 -6.5918,-4.48242 -3.7793,-1.66992 -8.08594,-1.66992 -4.30664,0 -8.08594,1.66992 -3.77929,1.58203 -6.67968,4.48242 -2.8125,2.8125 -4.48243,6.5918 -1.58203,3.7793 -1.58203,8.08594 l 0,50.00975 q 0,3.8672 -2.72461,6.5918 -2.63671,2.6367 -6.41601,2.6367 -3.86719,0 -6.5918,-2.6367 -2.63672,-2.7246 -2.63672,-6.5918 l 0,-80.06835 q 0,-3.77929 2.63672,-6.41601 2.72461,-2.72461 6.50391,-2.72461 3.07617,0 5.44922,1.75781 2.37304,1.66992 3.25195,4.48242 9.4043,-6.24023 21.35742,-6.24023 8.78906,0 16.52344,3.51562 7.73437,3.42774 13.53516,10.45899 12.21679,-13.97461 29.9707,-13.97461 7.99805,0 15.11719,3.16406 7.20703,3.07617 12.48046,8.4375 5.36133,5.27344 8.4375,12.48047 3.16407,7.11914 3.16407,15.11719 l 0,50.00975 z" />
    <path
       inkscape:connector-curvature="0"
       id="path4176"
       style="font-style:normal;font-variant:normal;font-weight:bold;font-stretch:normal;font-size:180px;line-height:125%;font-family:Comfortaa;-inkscape-font-specification:'Comfortaa Bold';letter-spacing:5px;word-spacing:0px;fill:#ed5752;fill-opacity:1;stroke:none;stroke-width:1px;stroke-linecap:butt;stroke-linejoin:miter;stroke-opacity:1"
       d="m 534.84665,891.72368 q 0,20.5664 -14.41406,34.80472 -14.58985,14.414 -34.80469,14.414 -20.39063,0 -34.80469,-14.414 -14.41406,-14.4141 -14.41406,-34.80472 0,-20.39063 14.41406,-34.80469 14.41406,-14.41406 34.80469,-14.41406 20.21484,0 34.80469,14.41406 7.20703,7.20703 10.72265,15.9082 3.60352,8.70118 3.69141,18.89649 z M 485.6279,860.87407 q -6.50391,0 -12.12891,2.46094 -5.625,2.46093 -9.75586,6.67968 -4.13086,4.13086 -6.59179,9.75586 -2.37305,5.625 -2.37305,11.95313 0,6.32812 2.37305,11.95312 2.46093,5.625 6.59179,9.84375 4.13086,4.13086 9.75586,6.5918 5.625,2.46095 12.12891,2.46095 6.41601,0 12.04101,-2.46095 5.625,-2.46094 9.75586,-6.67969 4.21875,-4.21875 6.5918,-9.75586 2.46094,-5.625 2.46094,-11.95312 0,-6.32813 -2.46094,-11.86524 -2.37305,-5.625 -6.5918,-9.84375 -4.13086,-4.21875 -9.75586,-6.67968 -5.625,-2.46094 -12.04101,-2.46094 z" />
    <path
       inkscape:connector-curvature="0"
       id="path4178"
       style="font-style:normal;font-variant:normal;font-weight:bold;font-stretch:normal;font-size:180px;line-height:125%;font-family:Comfortaa;-inkscape-font-specification:'Comfortaa Bold';letter-spacing:5px;word-spacing:0px;fill:#ed5752;fill-opacity:1;stroke:none;stroke-width:1px;stroke-linecap:butt;stroke-linejoin:miter;stroke-opacity:1"
       d="m 603.1279,922.5733 q 6.41601,0 12.04101,-2.46095 5.625,-2.46094 9.75586,-6.67969 4.21875,-4.21875 6.5918,-9.75586 2.46094,-5.625 2.46094,-11.95312 0,-6.32813 -2.46094,-11.86524 -2.37305,-5.625 -6.5918,-9.84375 -4.13086,-4.21875 -9.75586,-6.67968 -5.625,-2.46094 -12.04101,-2.46094 -6.50391,0 -12.12891,2.46094 -5.625,2.46093 -9.75586,6.67968 -4.13086,4.13086 -6.59179,9.75586 -2.37305,5.625 -2.37305,11.95313 0,6.32812 2.37305,11.95312 2.46093,5.625 6.59179,9.84375 4.13086,4.13086 9.75586,6.5918 5.625,2.46095 12.12891,2.46095 z m -30.84961,-69.16993 q 13.0957,-10.89844 30.84961,-10.89844 20.21484,0 34.80469,14.41406 7.20703,7.11914 10.81054,15.9082 3.60352,8.70118 3.60352,18.89649 0,20.5664 -14.41406,34.80472 -14.58985,14.414 -34.80469,14.414 -20.39063,0 -34.80469,-14.414 -14.41406,-14.4141 -14.41406,-34.80472 l 0,-82.26563 q 0,-3.95507 2.54883,-6.5039 2.63672,-2.63672 6.59179,-2.63672 3.86719,0 6.50391,2.63672 2.72461,2.54883 2.72461,6.5039 l 0,43.94532 z" />
    <path
       inkscape:connector-curvature="0"
       id="path4180"
       style="font-style:normal;font-variant:normal;font-weight:bold;font-stretch:normal;font-size:180px;line-height:125%;font-family:Comfortaa;-inkscape-font-specification:'Comfortaa Bold';letter-spacing:5px;word-spacing:0px;fill:#ed5752;fill-opacity:1;stroke:none;stroke-width:1px;stroke-linecap:butt;stroke-linejoin:miter;stroke-opacity:1"
       d="m 696.2822,825.01469 q 0,4.48243 -3.16407,7.64649 -3.16406,3.16406 -7.64648,3.16406 -4.48242,0 -7.64649,-3.16406 -3.16406,-3.16406 -3.16406,-7.64649 0,-4.48242 3.16406,-7.64648 3.16407,-3.16406 7.64649,-3.16406 4.48242,0 7.64648,3.16406 3.16407,3.16406 3.16407,7.64648 z m -19.95118,106.69921 0,-79.98046 q 0,-3.86718 2.63672,-6.5039 2.72461,-2.72461 6.50391,-2.72461 3.7793,0 6.41601,2.72461 2.72461,2.63672 2.8125,6.5039 l 0,79.98046 q -0.0879,3.8672 -2.8125,6.5918 -2.63671,2.6367 -6.41601,2.6367 -3.7793,0 -6.50391,-2.6367 -2.63672,-2.7246 -2.63672,-6.5918 z" />
    <path
       inkscape:connector-curvature="0"
       id="path4182"
       style="font-style:normal;font-variant:normal;font-weight:bold;font-stretch:normal;font-size:180px;line-height:125%;font-family:Comfortaa;-inkscape-font-specification:'Comfortaa Bold';letter-spacing:5px;word-spacing:0px;fill:#92aac7;fill-opacity:1;stroke:none;stroke-width:1px;stroke-linecap:butt;stroke-linejoin:miter;stroke-opacity:1"
       d="m 736.61423,851.64555 0,1.75782 q 6.59179,-5.27344 14.32617,-8.08594 7.73437,-2.8125 16.52344,-2.8125 3.86718,0 8.26172,0.52734 4.48242,0.52735 8.17382,1.9336 3.7793,1.31836 6.24024,3.6914 2.46094,2.37305 2.46094,6.15235 0,1.93359 -0.79102,3.60351 -0.70313,1.66992 -1.93359,2.98828 -1.23047,1.23047 -2.90039,1.9336 -1.66993,0.70312 -3.60352,0.70312 -1.66992,0 -3.86719,-0.9668 -5.53711,-2.19726 -12.04101,-2.19726 -6.41602,0 -12.04102,2.46094 -5.625,2.37304 -9.84375,6.59179 -4.13086,4.13086 -6.5918,9.75586 -2.37304,5.625 -2.37304,12.04102 l 0,40.07812 q 0,3.7793 -2.72461,6.5039 -2.63672,2.6367 -6.41602,2.6367 -3.86719,0 -6.59179,-2.6367 -2.63672,-2.7246 -2.63672,-6.5039 l 0,-80.15625 q 0,-3.77929 2.63672,-6.41601 2.7246,-2.72461 6.59179,-2.72461 3.7793,0 6.41602,2.72461 2.72461,2.63672 2.72461,6.41601 z" />
    <path
       inkscape:connector-curvature="0"
       id="path4184"
       style="font-style:normal;font-variant:normal;font-weight:bold;font-stretch:normal;font-size:180px;line-height:125%;font-family:Comfortaa;-inkscape-font-specification:'Comfortaa Bold';letter-spacing:5px;word-spacing:0px;fill:#92aac7;fill-opacity:1;stroke:none;stroke-width:1px;stroke-linecap:butt;stroke-linejoin:miter;stroke-opacity:1"
       d="m 906.40915,891.72368 q 0,20.5664 -14.41406,34.80472 -14.58985,14.414 -34.80469,14.414 -20.39063,0 -34.80469,-14.414 -14.41406,-14.4141 -14.41406,-34.80472 0,-20.39063 14.41406,-34.80469 14.41406,-14.41406 34.80469,-14.41406 20.21484,0 34.80469,14.41406 7.20703,7.20703 10.72265,15.9082 3.60352,8.70118 3.69141,18.89649 z M 857.1904,860.87407 q -6.50391,0 -12.12891,2.46094 -5.625,2.46093 -9.75586,6.67968 -4.13086,4.13086 -6.59179,9.75586 -2.37305,5.625 -2.37305,11.95313 0,6.32812 2.37305,11.95312 2.46093,5.625 6.59179,9.84375 4.13086,4.13086 9.75586,6.5918 5.625,2.46095 12.12891,2.46095 6.41601,0 12.04101,-2.46095 5.625,-2.46094 9.75586,-6.67969 4.21875,-4.21875 6.5918,-9.75586 2.46094,-5.625 2.46094,-11.95312 0,-6.32813 -2.46094,-11.86524 -2.37305,-5.625 -6.5918,-9.84375 -4.13086,-4.21875 -9.75586,-6.67968 -5.625,-2.46094 -12.04101,-2.46094 z" />
    <path
       inkscape:connector-curvature="0"
       id="path4186"
       style="font-style:normal;font-variant:normal;font-weight:bold;font-stretch:normal;font-size:180px;line-height:125%;font-family:Comfortaa;-inkscape-font-specification:'Comfortaa Bold';letter-spacing:5px;word-spacing:0px;fill:#92aac7;fill-opacity:1;stroke:none;stroke-width:1px;stroke-linecap:butt;stroke-linejoin:miter;stroke-opacity:1"
       d="m 974.6904,922.5733 q 6.41601,0 12.041,-2.46095 5.625,-2.46094 9.7559,-6.67969 4.2187,-4.21875 6.5918,-9.75586 2.4609,-5.625 2.4609,-11.95312 0,-6.32813 -2.4609,-11.86524 -2.3731,-5.625 -6.5918,-9.84375 -4.1309,-4.21875 -9.7559,-6.67968 -5.62499,-2.46094 -12.041,-2.46094 -6.50391,0 -12.12891,2.46094 -5.625,2.46093 -9.75586,6.67968 -4.13086,4.13086 -6.59179,9.75586 -2.37305,5.625 -2.37305,11.95313 0,6.32812 2.37305,11.95312 2.46093,5.625 6.59179,9.84375 4.13086,4.13086 9.75586,6.5918 5.625,2.46095 12.12891,2.46095 z m -30.84961,-69.16993 q 13.0957,-10.89844 30.84961,-10.89844 20.2148,0 34.8047,14.41406 7.207,7.11914 10.8105,15.9082 3.6035,8.70118 3.6035,18.89649 0,20.5664 -14.414,34.80472 -14.5899,14.414 -34.8047,14.414 -20.39063,0 -34.80469,-14.414 -14.41406,-14.4141 -14.41406,-34.80472 l 0,-82.26563 q 0,-3.95507 2.54883,-6.5039 2.63672,-2.63672 6.59179,-2.63672 3.86719,0 6.50391,2.63672 2.72461,2.54883 2.72461,6.5039 l 0,43.94532 z" />
  </g>
</svg>
